<?xml version="1.0" encoding="utf-8"?>
<!-- Generator: Adobe Illustrator 28.0.0, SVG Export Plug-In . SVG Version: 6.00 Build 0)  -->
<svg version="1.1" xmlns="http://www.w3.org/2000/svg" xmlns:xlink="http://www.w3.org/1999/xlink" x="0px" y="0px"
	 viewBox="0 0 600 600" style="enable-background:new 0 0 600 600;" xml:space="preserve">
<style type="text/css">
	.st0{fill:#3C5B78;}
	.st1{fill:#7AADC2;}
	.st2{fill:#F2F2F2;}
</style>
<g id="Слой_3">
	<path class="st0" d="M454.76,280.21c-1.78,0.14-3.67-0.5-4.88-2.16c-5.71-7.84-9.58-16.65-13.89-25.26
		c-1.51,0.27-3.1-0.06-4.22-1.3c-5.96-6.62-9.78-14.35-13.26-22.3c-0.39-0.49-0.77-0.97-1.16-1.46
		c-11.28-11.21-20.44-24.54-28.74-38.02c-1.37-2.23-0.8-4.34,0.59-5.73c-1.07-4,3.62-8.19,7.3-5.76c0.11-0.24,0.23-0.48,0.38-0.7
		c-6.95-1.92-14.27-2.96-21.83-2.96H246v55h-58v68h-44v123.03c0,45.27,36.7,81.97,81.97,81.97h149.06
		c45.27,0,81.97-36.7,81.97-81.97V284.13C456.25,282.83,455.5,281.52,454.76,280.21z"/>
</g>
<g id="Слой_9">
	<path class="st1" d="M451,416.55c-26.9,7.94-137.57,34.48-255-7c-19.75-6.98-37.07-14.98-52-22.77v33.8c0,2.57,0.13,5.11,0.36,7.61
		c28.7,14.39,62.1,24.6,82.64,28.35c65.01,11.87,161.09,25.16,212.39,14.77c11.02-13.96,17.61-31.57,17.61-50.74v-5.81
		C453.7,415.75,451.27,416.47,451,416.55z"/>
</g>
<g id="Слой_2">
	<path class="st1" d="M491,108.55c-0.36,0.18-0.7,0.72-1.03,1.45c-3.33,13.77-8.47,27.74-15.5,41.42
		c-20.15,39.21-51.26,67.24-82.94,78.63c8.13,17.43,12.95,36.16,17.81,54.82c28.3-20.52,54.28-55.09,70.71-98.17
		c7.56-19.81,12.4-39.62,14.72-58.57C494.26,122.21,493,107.56,491,108.55z"/>
	<g id="Слой_8">
	</g>
	<g>
		<path class="st0" d="M300,73.56c55.27,0.26,100,45.16,100,100.49s-44.73,100.23-100,100.49V73.56z"/>
		<path class="st0" d="M458.71,411.38c-16.11-32.87-12.83-53.06,1.69-57.58c14.07-4.38,37.89,11.07,48.29,38.92
			c10.4,27.85,7.64,54.61-6.16,59.76C488.73,457.63,471.76,438,458.71,411.38z"/>
		<path class="st0" d="M462.83,419.2L341,147.55c51.48,26.61,106.92,100.84,142.82,178.96c11.55,25.14,20.46,50.34,26.81,74.85
			L462.83,419.2z"/>
		<path class="st0" d="M431.25,517.2L431.25,517.2c4.54-2.62,6.1-8.43,3.48-12.98l-8-13.86c-2.62-4.54-8.43-6.1-12.98-3.48v0
			c-4.54,2.62-6.1,8.43-3.48,12.98l8,13.86C420.9,518.27,426.71,519.83,431.25,517.2z"/>
		<path class="st0" d="M406.01,525.11L406.01,525.11c5.14-1.05,8.45-6.08,7.4-11.22l-3.22-15.67c-1.05-5.14-6.08-8.45-11.22-7.4l0,0
			c-5.14,1.05-8.45,6.08-7.4,11.22l3.22,15.67C395.85,522.86,400.87,526.17,406.01,525.11z"/>
		<path class="st0" d="M381.99,526.41L381.99,526.41c5.23,0.45,9.83-3.43,10.28-8.65l1.37-15.94c0.45-5.23-3.43-9.83-8.65-10.28h0
			c-5.23-0.45-9.83,3.43-10.28,8.65l-1.37,15.94C372.89,521.36,376.77,525.96,381.99,526.41z"/>
	</g>
	<g>
		<path class="st0" d="M300,73.56c-55.27,0.26-100,45.16-100,100.49s44.73,100.23,100,100.49V73.56z"/>
		<path class="st0" d="M141.29,411.38c16.11-32.87,12.83-53.06-1.69-57.58c-14.07-4.38-37.89,11.07-48.29,38.92
			c-10.4,27.85-7.64,54.61,6.16,59.76C111.27,457.63,128.24,438,141.29,411.38z"/>
		<path class="st0" d="M137.17,419.2L259,147.55c-51.48,26.61-106.92,100.84-142.82,178.96c-11.55,25.14-20.46,50.34-26.81,74.85
			L137.17,419.2z"/>
		<path class="st0" d="M168.75,517.2L168.75,517.2c-4.54-2.62-6.1-8.43-3.48-12.98l8-13.86c2.62-4.54,8.43-6.1,12.98-3.48l0,0
			c4.54,2.62,6.1,8.43,3.48,12.98l-8,13.86C179.1,518.27,173.29,519.83,168.75,517.2z"/>
		<path class="st0" d="M193.99,525.11L193.99,525.11c-5.14-1.05-8.45-6.08-7.4-11.22l3.22-15.67c1.05-5.14,6.08-8.45,11.22-7.4h0
			c5.14,1.05,8.45,6.08,7.4,11.22l-3.22,15.67C204.15,522.86,199.13,526.17,193.99,525.11z"/>
		<path class="st0" d="M218.01,526.41L218.01,526.41c-5.23,0.45-9.83-3.43-10.28-8.65l-1.37-15.94c-0.45-5.23,3.43-9.83,8.65-10.28
			h0c5.23-0.45,9.83,3.43,10.28,8.65l1.37,15.94C227.11,521.36,223.23,525.96,218.01,526.41z"/>
	</g>
</g>
<g id="Слой_7">
	<path class="st2" d="M281,165.55c-22.45,2.47-36.71,24.74-42,33c-7.07,11.04-10.64,21.28-15,38c-10.74,41.18-13.81,73.87-14,76
		c-4.07,45.52-6.11,68.29,2,97c5.09,18.03,12.4,42.64,35,60c3.85,2.96,28.65,22.02,48,17c64.53-16.74,55.01-298.01,6-318
		C290.96,164.45,281,165.55,281,165.55z"/>
	<path class="st2" d="M318.52,165.13c22.45,2.47,36.71,24.74,42,33c7.07,11.04,10.64,21.28,15,38c10.74,41.18,13.81,73.87,14,76
		c4.07,45.52,6.11,68.29-2,97c-5.09,18.03-12.4,42.64-35,60c-3.85,2.96-28.65,22.02-48,17c-64.53-16.74-55.01-298.01-6-318
		C308.56,164.03,318.52,165.13,318.52,165.13z"/>
	<path class="st2" d="M302,460.55c-6.33,8-12.67,16-19,24"/>
	<path class="st2" d="M299,452.55c-6.33,7.67-12.67,15.33-19,23"/>
	<ellipse class="st2" cx="300" cy="470.05" rx="37" ry="19.5"/>
</g>
<g id="Слой_5">
	<g>
		<path class="st2" d="M298.65,165c0.24,0,0.47-0.01,0.71-0.01c2.64-30.89,20.29-57.5,45.63-72.49
			C331.6,84.29,315.86,79.55,299,79.55s-32.6,4.74-45.99,12.96C278.36,107.5,296.01,134.11,298.65,165z"/>
	</g>
</g>
<g id="Слой_6">
	<path class="st0" d="M314.54,184.37l10.21-14.8c7.3-10.59-0.28-25.02-13.14-25.02h-25.22c-12.86,0-20.44,14.43-13.14,25.02
		l10.21,14.8C290.96,195.25,307.04,195.25,314.54,184.37z"/>
	<path class="st1" d="M383.9,471.81c7.89-14.56,15.17-29.44,22.05-44.5c0.15-0.32,0.28-0.64,0.42-0.96
		c-49.15,7.93-128.11,12.26-210.38-16.81c-6.54-2.31-12.81-4.74-18.82-7.23c2.06,14.41,4.93,28.71,8.22,42.91
		c15.77,5.4,30.55,9.3,41.6,11.31c45.18,8.25,105.38,17.19,155.12,18.38C382.73,473.89,383.34,472.86,383.9,471.81z"/>
</g>
</svg>
