<svg width="38" height="38" viewBox="0 0 38 38" fill="none" xmlns="http://www.w3.org/2000/svg">
<path fill-rule="evenodd" clip-rule="evenodd" d="M21.6541 6.83409C20.9772 4.0553 17.0228 4.0553 16.3459 6.83409C16.2448 7.25165 16.0466 7.63946 15.7673 7.96594C15.4881 8.29242 15.1357 8.54836 14.7388 8.71293C14.342 8.8775 13.9119 8.94605 13.4835 8.91301C13.0552 8.87996 12.6407 8.74624 12.2738 8.52275C9.82984 7.0336 7.03319 9.8302 8.52236 12.2741C9.48427 13.8523 8.63102 15.9115 6.83546 16.3479C4.05485 17.023 4.05485 20.9792 6.83546 21.6525C7.25314 21.7537 7.64102 21.9521 7.9675 22.2316C8.29399 22.511 8.54986 22.8637 8.71428 23.2607C8.87869 23.6578 8.94701 24.0881 8.91366 24.5165C8.88031 24.945 8.74624 25.3595 8.52236 25.7263C7.03319 28.1702 9.82984 30.9668 12.2738 29.4777C12.6406 29.2538 13.0552 29.1198 13.4836 29.0864C13.9121 29.0531 14.3424 29.1214 14.7394 29.2858C15.1365 29.4502 15.4891 29.7061 15.7686 30.0325C16.048 30.359 16.2464 30.7469 16.3476 31.1646C17.0228 33.9451 20.979 33.9451 21.6524 31.1646C21.7539 30.7471 21.9525 30.3595 22.232 30.0333C22.5115 29.707 22.8641 29.4513 23.261 29.2869C23.658 29.1226 24.0881 29.0542 24.5165 29.0873C24.9448 29.1205 25.3593 29.2542 25.7262 29.4777C28.1702 30.9668 30.9668 28.1702 29.4776 25.7263C29.2542 25.3594 29.1204 24.9449 29.0873 24.5166C29.0541 24.0882 29.1225 23.6581 29.2869 23.2612C29.4512 22.8643 29.7069 22.5117 30.0332 22.2322C30.3595 21.9527 30.7471 21.7541 31.1645 21.6525C33.9452 20.9774 33.9452 17.0212 31.1645 16.3479C30.7469 16.2467 30.359 16.0483 30.0325 15.7689C29.706 15.4894 29.4501 15.1368 29.2857 14.7397C29.1213 14.3427 29.053 13.9124 29.0863 13.4839C29.1197 13.0555 29.2538 12.641 29.4776 12.2741C30.9668 9.8302 28.1702 7.0336 25.7262 8.52275C25.3594 8.74662 24.9448 8.88069 24.5164 8.91404C24.0879 8.94739 23.6576 8.87907 23.2606 8.71466C22.8635 8.55025 22.5109 8.29438 22.2314 7.9679C21.952 7.64142 21.7536 7.25355 21.6524 6.83588L21.6541 6.83409Z" stroke="#3C5B78" stroke-width="2"/>
<path d="M22.1667 19C22.1667 20.7489 20.7489 22.1667 19 22.1667C17.2511 22.1667 15.8333 20.7489 15.8333 19C15.8333 17.2511 17.2511 15.8333 19 15.8333C20.7489 15.8333 22.1667 17.2511 22.1667 19Z" stroke="#3C5B78" stroke-width="2"/>
</svg>
