<?xml version="1.0" encoding="utf-8"?>
<!-- Generator: Adobe Illustrator 28.0.0, SVG Export Plug-In . SVG Version: 6.00 Build 0)  -->
<svg version="1.1" xmlns="http://www.w3.org/2000/svg" xmlns:xlink="http://www.w3.org/1999/xlink" x="0px" y="0px"
	 viewBox="0 0 960 560" style="enable-background:new 0 0 960 560;" xml:space="preserve">
<style type="text/css">
	.st0{fill:#3C5B78;}
	.st1{fill:#7AADC2;}
	.st2{fill:#F2F2F2;}
</style>
<g id="Слой_3">
	<path class="st0" d="M630.76,228.66c-1.78,0.14-3.67-0.5-4.88-2.16c-5.71-7.84-9.58-16.65-13.89-25.26
		c-1.51,0.27-3.1-0.06-4.22-1.3c-5.96-6.62-9.78-14.35-13.26-22.3c-0.39-0.49-0.77-0.97-1.16-1.46
		c-11.28-11.21-20.44-24.54-28.74-38.02c-1.37-2.23-0.8-4.34,0.59-5.73c-1.07-4,3.62-8.19,7.3-5.76c0.11-0.24,0.23-0.48,0.38-0.7
		c-6.95-1.92-14.27-2.96-21.83-2.96H422v55h-58v68h-44v123.03c0,45.27,36.7,81.97,81.97,81.97h149.06
		c45.27,0,81.97-36.7,81.97-81.97V232.58C632.25,231.28,631.5,229.97,630.76,228.66z"/>
</g>
<g id="Слой_9">
	<path class="st1" d="M627,365c-26.9,7.94-137.57,34.48-255-7c-19.75-6.98-37.07-14.98-52-22.77v33.8c0,2.57,0.13,5.11,0.36,7.61
		c28.7,14.39,62.1,24.6,82.64,28.35c65.01,11.87,161.09,25.16,212.39,14.77C626.41,405.81,633,388.2,633,369.03v-5.81
		C629.7,364.2,627.27,364.92,627,365z"/>
</g>
<g id="Слой_2">
	<path class="st1" d="M667,57c-0.36,0.18-0.7,0.72-1.03,1.45c-3.33,13.77-8.47,27.74-15.5,41.42
		c-20.15,39.21-51.26,67.24-82.94,78.63c8.13,17.43,12.95,36.16,17.81,54.82c28.3-20.52,54.28-55.09,70.71-98.17
		c7.56-19.81,12.4-39.62,14.72-58.57C670.26,70.66,669,56.01,667,57z"/>
	<g id="Слой_8">
	</g>
	<g>
		<path class="st0" d="M476,22.01c55.27,0.26,100,45.16,100,100.49c0,55.33-44.73,100.23-100,100.49V22.01z"/>
		<path class="st0" d="M634.71,359.83c-16.11-32.87-12.83-53.06,1.69-57.58c14.07-4.38,37.89,11.07,48.29,38.92
			c10.4,27.85,7.64,54.61-6.16,59.76C664.73,406.09,647.76,386.46,634.71,359.83z"/>
		<path class="st0" d="M638.83,367.65L517,96c51.48,26.61,106.92,100.84,142.82,178.96c11.55,25.14,20.46,50.34,26.81,74.85
			L638.83,367.65z"/>
		<path class="st0" d="M607.25,465.66L607.25,465.66c4.54-2.62,6.1-8.43,3.48-12.98l-8-13.86c-2.62-4.54-8.43-6.1-12.98-3.48v0
			c-4.54,2.62-6.1,8.43-3.48,12.98l8,13.86C596.9,466.72,602.71,468.28,607.25,465.66z"/>
		<path class="st0" d="M582.01,473.57L582.01,473.57c5.14-1.05,8.45-6.08,7.4-11.22l-3.22-15.67c-1.05-5.14-6.08-8.45-11.22-7.4h0
			c-5.14,1.05-8.45,6.08-7.4,11.22l3.22,15.67C571.85,471.31,576.87,474.62,582.01,473.57z"/>
		<path class="st0" d="M557.99,474.86L557.99,474.86c5.23,0.45,9.83-3.43,10.28-8.65l1.37-15.94c0.45-5.23-3.43-9.83-8.65-10.28l0,0
			c-5.23-0.45-9.83,3.43-10.28,8.65l-1.37,15.94C548.89,469.81,552.77,474.41,557.99,474.86z"/>
	</g>
	<g>
		<path class="st0" d="M476,22.01c-55.27,0.26-100,45.16-100,100.49c0,55.33,44.73,100.23,100,100.49V22.01z"/>
		<path class="st0" d="M317.29,359.83c16.11-32.87,12.83-53.06-1.69-57.58c-14.07-4.38-37.89,11.07-48.29,38.92
			c-10.4,27.85-7.64,54.61,6.16,59.76C287.27,406.09,304.24,386.46,317.29,359.83z"/>
		<path class="st0" d="M313.17,367.65L435,96c-51.48,26.61-106.92,100.84-142.82,178.96c-11.55,25.14-20.46,50.34-26.81,74.85
			L313.17,367.65z"/>
		<path class="st0" d="M344.75,465.66L344.75,465.66c-4.54-2.62-6.1-8.43-3.48-12.98l8-13.86c2.62-4.54,8.43-6.1,12.98-3.48v0
			c4.54,2.62,6.1,8.43,3.48,12.98l-8,13.86C355.1,466.72,349.29,468.28,344.75,465.66z"/>
		<path class="st0" d="M369.99,473.57L369.99,473.57c-5.14-1.05-8.45-6.08-7.4-11.22l3.22-15.67c1.05-5.14,6.08-8.45,11.22-7.4l0,0
			c5.14,1.05,8.45,6.08,7.4,11.22l-3.22,15.67C380.15,471.31,375.13,474.62,369.99,473.57z"/>
		<path class="st0" d="M394.01,474.86L394.01,474.86c-5.23,0.45-9.83-3.43-10.28-8.65l-1.37-15.94c-0.45-5.23,3.43-9.83,8.65-10.28
			h0c5.23-0.45,9.83,3.43,10.28,8.65l1.37,15.94C403.11,469.81,399.23,474.41,394.01,474.86z"/>
	</g>
</g>
<g id="Слой_7">
	<path class="st2" d="M457,114c-22.45,2.47-36.71,24.74-42,33c-7.07,11.04-10.64,21.28-15,38c-10.74,41.18-13.81,73.87-14,76
		c-4.07,45.52-6.11,68.29,2,97c5.09,18.03,12.4,42.64,35,60c3.85,2.96,28.65,22.02,48,17c64.53-16.74,55.01-298.01,6-318
		C466.96,112.9,457,114,457,114z"/>
	<path class="st2" d="M494.52,113.58c22.45,2.47,36.71,24.74,42,33c7.07,11.04,10.64,21.28,15,38c10.74,41.18,13.81,73.87,14,76
		c4.07,45.52,6.11,68.29-2,97c-5.09,18.03-12.4,42.64-35,60c-3.85,2.96-28.65,22.02-48,17c-64.53-16.74-55.01-298.01-6-318
		C484.56,112.49,494.52,113.58,494.52,113.58z"/>
	<path class="st2" d="M478,409c-6.33,8-12.67,16-19,24"/>
	<path class="st2" d="M475,401c-6.33,7.67-12.67,15.33-19,23"/>
	<ellipse class="st2" cx="476" cy="418.5" rx="37" ry="19.5"/>
</g>
<g id="Слой_5">
	<g>
		<path class="st2" d="M474.65,113.46c0.24,0,0.47-0.01,0.71-0.01c2.64-30.89,20.29-57.5,45.63-72.49C507.6,32.74,491.86,28,475,28
			s-32.6,4.74-45.99,12.96C454.36,55.95,472.01,82.56,474.65,113.46z"/>
	</g>
</g>
<g id="Слой_6">
	<path class="st0" d="M490.54,132.82l10.21-14.8c7.3-10.59-0.28-25.02-13.14-25.02h-25.22c-12.86,0-20.44,14.43-13.14,25.02
		l10.21,14.8C466.96,143.7,483.04,143.7,490.54,132.82z"/>
	<path class="st1" d="M559.9,420.26c7.89-14.56,15.17-29.44,22.05-44.5c0.15-0.32,0.28-0.64,0.42-0.96
		C533.23,382.73,454.28,387.07,372,358c-6.54-2.31-12.81-4.74-18.82-7.23c2.06,14.41,4.93,28.71,8.22,42.91
		c15.77,5.4,30.55,9.3,41.6,11.31c45.18,8.25,105.38,17.19,155.12,18.38C558.73,422.35,559.34,421.31,559.9,420.26z"/>
</g>
</svg>
